<svg width="293" height="223" viewBox="0 0 293 223" fill="none" xmlns="http://www.w3.org/2000/svg">
<path d="M263.205 148.639H192.594C191.331 148.639 190.304 147.372 190.304 145.815V18.9974C190.304 17.4404 191.331 16.1738 192.594 16.1738H263.205C264.468 16.1738 265.495 17.4404 265.495 18.9974V145.815C265.495 147.372 264.468 148.639 263.205 148.639ZM192.594 16.2943C191.385 16.2943 190.401 17.5069 190.401 18.9974V145.815C190.401 147.306 191.385 148.518 192.594 148.518H263.205C264.414 148.518 265.398 147.306 265.398 145.815V18.9974C265.398 17.5069 264.414 16.2943 263.205 16.2943H192.594Z" fill="#E0E0E0"/>
<path d="M181.78 148.639H111.168C109.905 148.639 108.878 147.372 108.878 145.815V18.9974C108.878 17.4404 109.905 16.1738 111.168 16.1738H181.78C183.042 16.1738 184.07 17.4404 184.07 18.9974V145.815C184.07 147.372 183.042 148.639 181.78 148.639ZM111.168 16.2943C109.959 16.2943 108.976 17.5069 108.976 18.9974V145.815C108.976 147.306 109.959 148.518 111.168 148.518H181.78C182.989 148.518 183.972 147.306 183.972 145.815V18.9974C183.972 17.5069 182.989 16.2943 181.78 16.2943H111.168Z" fill="#E0E0E0"/>
<path d="M100.406 148.639H29.7945C28.5317 148.639 27.5045 147.372 27.5045 145.815V18.9974C27.5045 17.4404 28.5317 16.1738 29.7945 16.1738H100.406C101.669 16.1738 102.696 17.4404 102.696 18.9974V145.815C102.696 147.372 101.669 148.639 100.406 148.639ZM29.7945 16.2943C28.5857 16.2943 27.6022 17.5069 27.6022 18.9974V145.815C27.6022 147.306 28.5857 148.518 29.7945 148.518H100.406C101.615 148.518 102.599 147.306 102.599 145.815V18.9974C102.599 17.5069 101.615 16.2943 100.406 16.2943H29.7945Z" fill="#E0E0E0"/>
<path d="M293 178.056H0V178.114H293V178.056Z" fill="#E0E0E0"/>
<path d="M277.122 192.206H255.35V192.409H277.122V192.206Z" fill="#EBEBEB"/>
<path d="M199.111 194.405H193.397V194.608H199.111V194.405Z" fill="#EBEBEB"/>
<path d="M44.27 186.042H15.8785V186.244H44.27V186.042Z" fill="#EBEBEB"/>
<path d="M54.285 186.042H50.1222V186.244H54.285V186.042Z" fill="#EBEBEB"/>
<path d="M129.388 189.464H67.8141V189.666H129.388V189.464Z" fill="#EBEBEB"/>
<path d="M254.448 145.604H42.1189V156.277H254.448V145.604Z" fill="#E0E0E0"/>
<path d="M250.954 133.624H45.6127V144.297H250.954V133.624Z" fill="#E0E0E0"/>
<path d="M246.969 121.644H49.598V132.317H246.969V121.644Z" fill="#E0E0E0"/>
<path d="M242.837 109.664H53.7301V120.336H242.837V109.664Z" fill="#E0E0E0"/>
<path d="M238.628 97.6576H60.0427V108.33H238.628V97.6576Z" fill="#EBEBEB"/>
<path d="M235.689 85.736H65.0376V96.4088H235.689V85.736Z" fill="#EBEBEB"/>
<path d="M280.353 156.277H16.2142V178.271H280.353V156.277Z" fill="#EBEBEB"/>
<path d="M58.5815 156.277L41.1009 178.271H66.7321L82.9606 156.277H58.5815Z" fill="#F5F5F5"/>
<path d="M213.178 156.277L195.698 178.271H221.329L237.557 156.277H213.178Z" fill="#F5F5F5"/>
<path d="M93.9058 156.277L78.0316 178.271H86.1292L101.151 156.277H93.9058Z" fill="#F5F5F5"/>
<path d="M155.139 171.015C173.318 171.015 188.056 169.381 188.056 167.365C188.056 165.349 173.318 163.715 155.139 163.715C136.959 163.715 122.221 165.349 122.221 167.365C122.221 169.381 136.959 171.015 155.139 171.015Z" fill="#F5F5F5"/>
<path d="M213.424 56.7099H202.58V62.2617H213.424V56.7099Z" fill="#E0E0E0"/>
<path d="M252.391 25.7785H241.548V31.3303H252.391V25.7785Z" fill="#E0E0E0"/>
<path d="M219.45 51.2H208.606V56.7518H219.45V51.2Z" fill="#E6E6E6"/>
<path d="M27.5372 114.902H16.6939V120.454H27.5372V114.902Z" fill="#E0E0E0"/>
<path d="M32.6202 30.8577H21.7769V36.4095H32.6202V30.8577Z" fill="#E0E0E0"/>
<path d="M33.5632 109.392H22.7199V114.944H33.5632V109.392Z" fill="#E6E6E6"/>
<path d="M267.627 113.618H256.784V119.169H267.627V113.618Z" fill="#E0E0E0"/>
<path d="M274.012 119.065H263.169V124.617H274.012V119.065Z" fill="#F5F5F5"/>
<path d="M79.7003 39.63H68.857V45.1818H79.7003V39.63Z" fill="#E0E0E0"/>
<path d="M86.0853 45.0778H75.242V50.6296H86.0853V45.0778Z" fill="#F5F5F5"/>
<path d="M146.762 223C224.816 223 288.091 219.084 288.091 214.254C288.091 209.424 224.816 205.508 146.762 205.508C68.7083 205.508 5.43329 209.424 5.43329 214.254C5.43329 219.084 68.7083 223 146.762 223Z" fill="#F5F5F5"/>
<path d="M95.3768 0L102.45 23.5282L128.798 35.723V28.7016L105.7 18.4289L100.038 0H95.3768Z" fill="#263238"/>
<path opacity="0.7" d="M95.3768 0L102.45 23.5282L128.798 35.723V28.7016L105.7 18.4289L100.038 0H95.3768Z" fill="white"/>
<path d="M195.817 0L188.744 23.5282L162.395 35.723V28.7016L185.494 18.4289L191.156 0H195.817Z" fill="#263238"/>
<path opacity="0.7" d="M195.817 0L188.744 23.5282L162.395 35.723V28.7016L185.494 18.4289L191.156 0H195.817Z" fill="white"/>
<path d="M180.246 17.8615H112.896V70.7498H180.246V17.8615Z" fill="#263238"/>
<path opacity="0.1" d="M177.101 21.2017H116.041V66.4981H177.101V21.2017Z" fill="white"/>
<path d="M133.322 26.9017H121.608V43.8499H133.322V26.9017Z" fill="#263238"/>
<path d="M172.226 26.9017H160.511V44.3056H172.226V26.9017Z" fill="#263238"/>
<path d="M133.322 23.8913H121.608V25.8297H133.322V23.8913Z" fill="#263238"/>
<path d="M172.226 23.8913H160.511V25.8297H172.226V23.8913Z" fill="#263238"/>
<path d="M136.202 47.0169H128.084V62.4246H136.202V47.0169Z" fill="#263238"/>
<path d="M145.323 47.0169H137.205V62.4246H145.323V47.0169Z" fill="#263238"/>
<path d="M157.699 47.0169H149.581V62.4246H157.699V47.0169Z" fill="#263238"/>
<path d="M166.82 47.0169H158.702V62.4246H166.82V47.0169Z" fill="#263238"/>
<path d="M143.08 33.6336H136.704V42.4059H143.08V33.6336Z" fill="#263238"/>
<path d="M156.828 33.6336H150.452V42.4059H156.828V33.6336Z" fill="#263238"/>
<path d="M125.544 31.6115V38.8713H124.182V32.9599H123.004V31.6115H125.544Z" fill="#1C2F40"/>
<path d="M131.962 37.3467H131.003V38.8713H129.674V37.3467H126.503V36.2163L129.279 31.6115H130.709L128.135 35.9778H129.716V34.6193H131.003V35.9778H131.962V37.3467Z" fill="#1C2F40"/>
<path d="M133.313 51.3803V58.6401H131.951V52.7287H130.773V51.3803H133.313Z" fill="#1C2F40"/>
<path d="M141.898 51.3803V58.6401H140.536V52.7287H139.358V51.3803H141.898Z" fill="#1C2F40"/>
<path d="M156.001 57.2712V58.6401H151.552V57.5511L153.823 54.9065C154.344 54.2947 154.437 53.9212 154.437 53.5687C154.437 52.9983 154.117 52.6664 153.495 52.6664C152.99 52.6664 152.561 52.9049 152.275 53.3925L151.283 52.6041C151.737 51.7849 152.561 51.2559 153.621 51.2559C154.933 51.2559 155.808 52.0857 155.808 53.4029C155.808 54.108 155.648 54.751 154.824 55.6947L153.469 57.2712H156.001Z" fill="#1C2F40"/>
<path d="M165.015 56.3588C165.015 57.6449 164.25 58.765 162.568 58.765C161.752 58.765 160.894 58.4851 160.322 57.9871L160.86 56.701C161.306 57.116 161.92 57.3545 162.534 57.3545C163.216 57.3545 163.636 57.0019 163.636 56.4108C163.636 55.8404 163.333 55.4669 162.265 55.4669H160.759L161.062 51.3808H164.654V52.7292H162.198L162.105 54.1084H162.585C164.326 54.1084 165.015 55.073 165.015 56.3588Z" fill="#1C2F40"/>
<path d="M164.88 32.199V39.4588H163.518V33.5474H162.34V32.199H164.88Z" fill="#1C2F40"/>
<path d="M170.306 38.0899V39.4588H165.856V38.3698L168.127 35.7252C168.649 35.1134 168.741 34.7399 168.741 34.3874C168.741 33.817 168.422 33.4851 167.799 33.4851C167.295 33.4851 166.865 33.7236 166.58 34.2112L165.587 33.4228C166.041 32.6036 166.865 32.0746 167.925 32.0746C169.237 32.0746 170.112 32.9044 170.112 34.2215C170.112 34.9267 169.952 35.5697 169.128 36.5134L167.774 38.0899H170.306Z" fill="#1C2F40"/>
<path d="M147.327 53.5368C147.745 53.5368 148.083 53.1194 148.083 52.6045C148.083 52.0896 147.745 51.6722 147.327 51.6722C146.909 51.6722 146.571 52.0896 146.571 52.6045C146.571 53.1194 146.909 53.5368 147.327 53.5368Z" fill="#263238"/>
<path d="M147.327 58.2813C147.745 58.2813 148.083 57.8639 148.083 57.349C148.083 56.8341 147.745 56.4167 147.327 56.4167C146.909 56.4167 146.571 56.8341 146.571 57.349C146.571 57.8639 146.909 58.2813 147.327 58.2813Z" fill="#263238"/>
<path opacity="0.1" d="M146.571 21.2017C146.571 21.2017 150.541 30.7683 144.566 35.3758C138.591 39.9833 120.929 56.8016 121.608 66.4981H132.819C133.224 66.4981 121.03 62.7091 135.532 48.8488C150.035 34.9887 164.23 37.1329 160.322 21.2017H146.571Z" fill="white"/>
<path d="M5.43329 213.58L47.002 181.737L247.849 181.41L289.011 214.389L5.43329 213.58Z" fill="#1C2F40"/>
<path d="M18.2343 209.175L46.9939 185.476L243.81 185.13L271.708 209.175H18.2343Z" fill="#1C2F40"/>
<g opacity="0.3">
<path d="M251.956 191.161H218.089C218.089 191.161 210.475 191.687 213.731 198.636C216.405 204.345 227.598 204.163 227.598 204.163L267.194 204.366L251.956 191.161Z" fill="black"/>
</g>
<g opacity="0.3">
<path d="M74.125 190.379H41.6534L25.0199 203.583L64.6159 203.38C64.6159 203.38 75.8089 203.562 78.4833 197.853C81.7384 190.904 74.125 190.379 74.125 190.379Z" fill="black"/>
</g>
<path d="M17.4234 209.487L42.1627 190.075L46.7949 186.44C46.9167 186.345 47.5128 185.978 47.1877 186.07C47.2569 186.05 47.3418 186.074 47.4124 186.069C48.6851 185.978 49.9836 186.065 51.2579 186.062L71.1302 186.028L102.684 185.974L140.478 185.908L179.073 185.842L213.027 185.783L236.9 185.742L243.327 185.731C243.852 185.73 244.385 185.762 244.909 185.728C245.008 185.722 245.145 185.702 245.243 185.728C245.239 185.727 245.08 185.641 245.342 185.851C253.929 192.738 262.251 200.187 270.692 207.344L273.219 209.487L273.367 208.813H27.671C24.3517 208.813 21.0302 208.77 17.711 208.813C17.5659 208.815 17.4206 208.813 17.2755 208.813C16.8985 208.813 16.8978 209.536 17.2755 209.536H262.972C266.291 209.536 269.613 209.579 272.932 209.536C273.077 209.534 273.222 209.536 273.367 209.536C273.673 209.536 273.746 209.058 273.515 208.863L249.207 188.253C248.056 187.277 246.84 185.888 245.565 185.165C245.311 185.021 245.212 185.02 244.934 185.006C243.535 184.931 242.118 185.01 240.718 185.013L220.108 185.048L188.033 185.104L149.945 185.17L111.337 185.236L77.7052 185.294L54.5424 185.334L48.616 185.344C47.716 185.346 47.2251 185.247 46.4676 185.841L19.63 206.899L17.1276 208.863C16.8104 209.112 17.104 209.737 17.4234 209.487Z" fill="white"/>
<path d="M29.169 200.204L34.3255 200.182L46.0076 200.132L58.5344 200.078L66.2251 200.046C66.3836 200.045 66.5687 200.077 66.7257 200.044C67.0599 199.972 67.2907 199.351 67.4732 199.037L70.778 193.341L71.037 192.894C71.17 192.665 70.9906 192.351 70.784 192.351H38.3688C37.9918 192.351 37.9911 193.073 38.3688 193.073H70.784L70.531 192.53L66.487 199.5L66.74 199.321L62.9935 199.337L54.0462 199.375L43.1753 199.421L33.8135 199.461L30.7096 199.474C30.2244 199.477 29.7179 199.427 29.2341 199.481C29.2127 199.483 29.1905 199.481 29.169 199.481C28.792 199.483 28.7913 200.205 29.169 200.204Z" fill="white"/>
<path d="M41.9755 190.74H72.1769C73.8768 190.74 75.4678 190.712 77.0645 191.629C77.7816 192.04 78.4854 192.648 78.8106 193.57C79.2447 194.802 78.8665 196.201 78.3877 197.32C77.2951 199.872 74.9489 201.049 72.8045 201.775C70.0875 202.696 67.2418 203.007 64.4312 203.02C62.1618 203.03 59.8924 203.043 57.623 203.054L44.9968 203.118L32.1702 203.183L24.7535 203.22L24.4017 203.222C24.0247 203.224 24.024 203.946 24.4017 203.944L29.8301 203.917L42.1224 203.855L55.4666 203.788L63.8975 203.745C66.1019 203.734 68.2954 203.588 70.4741 203.138C72.7919 202.658 75.2769 201.893 77.1855 200.119C78.7503 198.665 80.2179 195.692 79.3305 193.245C78.4503 190.818 75.69 190.018 73.7137 190.018H41.9755C41.5984 190.018 41.5978 190.74 41.9755 190.74Z" fill="white"/>
<g opacity="0.3">
<path d="M144.541 202.25C157.986 202.25 168.885 199.968 168.885 197.152C168.885 194.337 157.986 192.055 144.541 192.055C131.097 192.055 120.198 194.337 120.198 197.152C120.198 199.968 131.097 202.25 144.541 202.25Z" fill="black"/>
</g>
<path d="M168.592 197.152C168.58 197.778 167.815 198.262 167.378 198.524C166.32 199.159 165.146 199.523 164.004 199.845C160.292 200.889 156.459 201.317 152.666 201.598C147.808 201.958 142.93 201.986 138.07 201.707C134.06 201.476 130.019 201.077 126.077 200.107C124.812 199.796 123.538 199.432 122.332 198.858C121.751 198.582 120.863 198.186 120.556 197.447C120.469 197.239 120.47 197.064 120.556 196.858C120.683 196.551 120.938 196.327 121.167 196.146C122.037 195.461 123.077 195.093 124.065 194.768C127.533 193.626 131.164 193.176 134.734 192.846C139.551 192.402 144.393 192.313 149.22 192.51C153.425 192.681 157.653 193.041 161.802 193.922C163.204 194.22 164.607 194.574 165.964 195.108C166.753 195.418 167.683 195.779 168.296 196.504C168.46 196.698 168.588 196.93 168.592 197.152C168.6 197.617 169.186 197.618 169.178 197.152C169.162 196.303 168.53 195.733 167.985 195.356C166.968 194.654 165.803 194.257 164.679 193.915C160.901 192.767 156.966 192.321 153.092 192.017C147.977 191.615 142.836 191.584 137.717 191.896C133.604 192.147 129.447 192.569 125.412 193.63C124.138 193.965 122.853 194.361 121.658 195.014C121.036 195.355 120.225 195.849 119.974 196.697C119.387 198.681 122.357 199.679 123.353 200.041C126.84 201.311 130.55 201.769 134.16 202.126C139.286 202.633 144.445 202.729 149.583 202.502C153.883 202.312 158.212 201.926 162.45 200.971C163.865 200.653 165.289 200.277 166.644 199.675C167.413 199.333 168.315 198.915 168.857 198.119C169.046 197.842 169.171 197.519 169.178 197.152C169.186 196.687 168.6 196.687 168.592 197.152Z" fill="white"/>
<path d="M144.299 185.366V209.175C144.299 209.64 144.885 209.64 144.885 209.175V185.366C144.885 184.901 144.299 184.901 144.299 185.366Z" fill="white"/>
<path d="M262.964 200.263L259.232 200.247L250.271 200.209L239.481 200.163L230.104 200.123L227 200.11L226.043 200.106C225.897 200.105 225.681 200.054 225.539 200.104C225.521 200.11 225.494 200.104 225.474 200.104L225.727 200.282L221.683 193.312L221.43 193.856H254.683C255.06 193.856 255.061 193.133 254.683 193.133H221.43C221.223 193.133 221.044 193.448 221.177 193.677L223.948 198.453C224.357 199.159 224.742 199.909 225.184 200.584C225.33 200.807 225.444 200.822 225.648 200.827C227.868 200.878 230.091 200.846 232.311 200.855L244.512 200.907L256.623 200.959L260.829 200.977C261.505 200.98 262.197 201.034 262.873 200.985C262.903 200.983 262.934 200.986 262.964 200.986C263.341 200.987 263.341 200.265 262.964 200.263Z" fill="white"/>
<path d="M252.122 190.8H220.765C219.092 190.8 217.508 190.694 215.885 191.303C214.28 191.905 212.644 193.206 212.628 195.501C212.608 198.419 214.47 200.759 216.45 201.972C218.623 203.302 221.076 203.878 223.468 204.22C224.836 204.416 226.213 204.522 227.589 204.524C229.399 204.527 231.208 204.543 233.017 204.552L245.545 204.616L258.942 204.685L266.817 204.725L267.194 204.727C267.571 204.729 267.571 204.006 267.194 204.004L261.74 203.976L249.392 203.913L236.175 203.846L228.125 203.804C225.73 203.792 223.339 203.601 220.986 203.017C218.757 202.463 216.224 201.596 214.612 199.487C213.252 197.709 212.492 194.604 214.363 192.966C215.867 191.648 217.687 191.523 219.451 191.523H252.122C252.499 191.523 252.499 190.8 252.122 190.8Z" fill="white"/>
<path opacity="0.2" d="M96.0637 181.657C96.0637 181.657 111.564 185.834 103.05 193.592C94.5363 201.349 65.5006 197.346 54.1489 213.719L67.9028 213.758C67.9028 213.758 63.2522 208.876 79.8766 204.604C96.5011 200.332 112.884 201.492 117.905 192.97C122.926 184.449 117.895 181.657 117.895 181.657H96.0637Z" fill="white"/>
<path opacity="0.2" d="M154.027 214.004C154.027 214.004 158.338 209.655 167.753 203.864C177.167 198.073 191.168 193.648 189.236 181.657L210.72 181.41C210.72 181.41 206.196 192.693 193.944 195.92C185.085 198.254 175.489 205.247 173.291 207.103C169.316 210.461 173.819 214.06 173.819 214.06L154.027 214.004Z" fill="white"/>
<path d="M17.1169 198.777V199.682H26.2909L41.1009 187.682V186.755L17.1169 198.777Z" fill="#263238"/>
<path d="M41.1009 186.755L26.2174 198.777H17.1169L32.5257 186.755H41.1009Z" fill="#263238"/>
<path opacity="0.3" d="M41.1009 186.755L26.2174 198.777H17.1169L32.5257 186.755H41.1009Z" fill="white"/>
<path d="M38.5951 67.898H28.7533L32.2946 70.6894H38.3269L38.5951 67.898Z" fill="#263238"/>
<path opacity="0.3" d="M38.5951 67.898H28.7533L32.2946 70.6894H38.3269L38.5951 67.898Z" fill="white"/>
<path d="M32.2946 84.6228L38.166 77.0835V80.8532L32.2946 88.3924V84.6228Z" fill="#263238"/>
<path opacity="0.3" d="M32.2946 84.6228L38.166 77.0835V80.8532L32.2946 88.3924V84.6228Z" fill="white"/>
<path opacity="0.3" d="M35.5509 67.898C35.6153 67.898 36.4204 70.6894 36.4204 70.6894H38.166V67.898H35.5509Z" fill="black"/>
<path opacity="0.3" d="M36.523 79.1933L36.5956 82.8697L38.166 80.8532V77.0835L36.523 79.1933Z" fill="black"/>
<path d="M28.7533 67.898V192.766H32.2946V70.6894L28.7533 67.898Z" fill="#263238"/>
<path opacity="0.3" d="M28.7533 67.898V192.766H32.2946V70.6894L28.7533 67.898Z" fill="white"/>
<path d="M28.6794 68.054L31.9687 70.828C32.0226 70.8735 32.1073 70.9831 32.1713 70.9989C32.2643 71.0219 32.1336 70.901 32.1361 70.8917C32.1133 70.9778 32.1361 71.1209 32.1361 71.21V88.3924C32.1361 88.6249 32.4291 88.6252 32.4291 88.3924V71.3693C32.4291 71.1287 32.4738 70.885 32.3412 70.7055C32.1847 70.4937 31.9026 70.3356 31.7122 70.1751L30.5117 69.1626L28.8273 67.7421C28.6713 67.6105 28.5245 67.9234 28.6794 68.054Z" fill="#263238"/>
<path d="M38.166 46.3902V92.8135L66.0931 99.5617L67.4142 98.6309V57.7924L40.3324 46.3902H38.166Z" fill="#1C2F40"/>
<path opacity="0.6" d="M40.3324 91.7663L67.4142 98.6309L66.0931 99.5617L38.166 92.8135L40.3324 91.7663Z" fill="black"/>
<path d="M41.5302 49.0282L41.6694 90.9096L66.2335 96.9914V58.9188L41.5302 49.0282Z" fill="#1C2F40"/>
<path opacity="0.8" d="M41.5302 49.0282L41.6694 90.9096L66.2335 96.9914V58.9188L41.5302 49.0282Z" fill="white"/>
<path opacity="0.3" d="M40.3324 46.3902V91.7663L38.166 92.8134V46.3902H40.3324Z" fill="black"/>
<path d="M52.1062 85.1887V93.4936L55.5498 94.3462V86.1246L52.1062 85.1887Z" fill="#1C2F40"/>
<path d="M58.2152 86.9438C57.7587 86.9438 56.0946 86.5931 49.4096 84.6745L49.2585 84.6312V69.8478L58.4598 73.4979L58.4586 73.6748C58.4285 78.6731 58.402 86.2546 58.4531 86.6542L58.4891 86.788L58.4056 86.8786C58.3825 86.9099 58.3573 86.9438 58.2152 86.9438ZM49.6492 84.2488C52.5877 85.0904 57.106 86.335 58.0582 86.4755C58.0084 84.8563 58.0456 77.4039 58.0668 73.8479L49.6491 70.5087L49.6492 84.2488Z" fill="#263238"/>
<path d="M53.2012 85.736L56.149 85.3718V86.2798L54.2245 86.5787L53.2012 85.736Z" fill="#1C2F40"/>
<path opacity="0.3" d="M55.7683 54.7288C55.6519 54.6822 41.5302 66.9809 41.5302 66.9809L41.5997 72.976L60.5418 56.64L55.7683 54.7288Z" fill="white"/>
<path d="M65.7184 88.6332C60.9402 88.6332 55.8617 87.6178 55.8617 85.736C55.8617 83.8541 60.9402 82.8387 65.7184 82.8387C70.4966 82.8387 75.5751 83.8541 75.5751 85.736C75.5751 87.6178 70.4966 88.6332 65.7184 88.6332ZM65.7184 83.3204C60.14 83.3204 56.2524 84.5934 56.2524 85.736C56.2524 86.8786 60.14 88.1515 65.7184 88.1515C71.2968 88.1515 75.1844 86.8786 75.1844 85.736C75.1844 84.5934 71.2968 83.3204 65.7184 83.3204Z" fill="#1C2F40"/>
<path d="M65.8891 95.1467C62.6526 95.1467 59.2129 94.4542 59.2129 93.1707C59.2129 91.8872 62.6526 91.1946 65.8891 91.1946C69.1256 91.1946 72.5654 91.8872 72.5654 93.1707C72.5654 94.4542 69.1256 95.1467 65.8891 95.1467ZM65.8891 91.5558C62.1274 91.5558 59.5059 92.4068 59.5059 93.1707C59.5059 93.9344 62.1274 94.7854 65.8891 94.7854C69.6508 94.7854 72.2724 93.9344 72.2724 93.1707C72.2724 92.4068 69.6508 91.5558 65.8891 91.5558Z" fill="#263238"/>
<path d="M65.8145 101.762C64.1889 101.762 61.7703 101.429 61.7703 100.51C61.7703 99.5913 64.1889 99.2578 65.8145 99.2578C67.4401 99.2578 69.8587 99.5913 69.8587 100.51C69.8587 101.429 67.4401 101.762 65.8145 101.762ZM65.8145 99.6191C63.3517 99.6191 62.0633 100.199 62.0633 100.51C62.0633 100.821 63.3517 101.401 65.8145 101.401C68.2774 101.401 69.5657 100.821 69.5657 100.51C69.5657 100.199 68.2774 99.6191 65.8145 99.6191Z" fill="#263238"/>
<path d="M61.7549 104.203C61.7482 104.203 61.7413 104.203 61.7346 104.202C61.6543 104.188 61.5984 104.097 61.6095 103.998C61.6112 103.983 61.7703 102.545 61.7703 100.692C61.7703 99.2336 58.3079 90.8782 56.477 86.6641C56.4389 86.5761 56.4656 86.4665 56.5369 86.4195C56.6089 86.3724 56.6972 86.4056 56.7353 86.4933C56.9528 86.9941 62.0633 98.7796 62.0633 100.692C62.0633 102.572 61.9014 104.033 61.8998 104.047C61.8895 104.138 61.8268 104.203 61.7549 104.203Z" fill="#263238"/>
<path d="M63.3362 104.203L63.3276 104.203C63.2468 104.197 63.1851 104.112 63.1897 104.012C63.1914 103.977 63.3503 100.522 63.151 99.0478C63.0598 98.373 60.3097 88.9308 58.8684 84.0324C58.8407 83.9386 58.88 83.8351 58.9561 83.801C59.033 83.7676 59.1163 83.8158 59.1438 83.9092C59.3143 84.4887 63.3217 98.1126 63.4402 98.9885C63.6447 100.502 63.489 103.889 63.4823 104.033C63.4778 104.129 63.4133 104.203 63.3362 104.203Z" fill="#263238"/>
<path d="M69.6164 103.963L69.6056 103.963C69.5249 103.955 69.4642 103.869 69.4701 103.769C69.4711 103.753 69.5661 102.142 69.5661 100.282C69.5661 98.3668 75.0203 86.5797 75.2525 86.0789C75.2924 85.9921 75.3816 85.962 75.4524 86.0116C75.5226 86.0613 75.547 86.1716 75.507 86.2581C73.5534 90.4718 69.8591 98.8255 69.8591 100.282C69.8591 102.155 69.7633 103.78 69.7624 103.796C69.7566 103.891 69.6924 103.963 69.6164 103.963Z" fill="#263238"/>
<path d="M68.2146 104.108C68.1354 104.108 68.0704 104.031 68.0681 103.932C68.0647 103.776 67.9853 100.089 68.1894 98.5781C68.3075 97.7043 71.9769 84.297 72.1329 83.7267C72.159 83.6326 72.2412 83.582 72.3187 83.6133C72.3954 83.6453 72.4364 83.7478 72.4106 83.8424C71.0906 88.6638 68.57 97.9609 68.4786 98.6374C68.2789 100.114 68.3601 103.885 68.3611 103.923C68.3632 104.022 68.2995 104.105 68.2186 104.108L68.2146 104.108Z" fill="#263238"/>
<path d="M65.0374 104.373C64.9603 104.373 64.8958 104.299 64.8913 104.203C64.8888 104.147 64.6295 98.6348 64.5792 97.3266C64.5288 96.0252 63.366 83.2988 63.3543 83.1704C63.3452 83.0714 63.403 82.9818 63.4835 82.9707C63.5628 82.963 63.6365 83.0307 63.6454 83.1299C63.6935 83.6547 64.8211 95.9965 64.8718 97.3094C64.9222 98.6157 65.1812 104.127 65.1839 104.182C65.1885 104.282 65.1268 104.367 65.046 104.373L65.0374 104.373Z" fill="#263238"/>
<path d="M66.7298 104.108H66.7248C66.6439 104.105 66.5806 104.021 66.5833 103.921C66.5846 103.872 66.7155 99.0174 66.5218 97.7617C66.3208 96.4561 67.9168 83.5989 67.9849 83.0523C67.9971 82.9538 68.0744 82.8874 68.1518 82.9011C68.232 82.9161 68.2867 83.0083 68.2745 83.1071C67.7007 87.7166 66.6563 96.6978 66.8099 97.6944C67.0092 98.9892 66.8818 103.732 66.8763 103.934C66.8736 104.031 66.8085 104.108 66.7298 104.108Z" fill="#263238"/>
<path opacity="0.3" d="M41.628 78.4535L63.3982 57.7836L66.2335 58.9188V61.9342C66.2335 61.9342 41.4107 85.7549 41.5302 85.3718C41.6497 84.9888 41.628 78.4535 41.628 78.4535Z" fill="white"/>
<path opacity="0.3" d="M28.7534 192.766L27.1986 190.912L28.7534 189.699V192.766Z" fill="black"/>
<path d="M279.774 201.415V202.32H270.6L255.79 190.32V189.393L279.774 201.415Z" fill="#263238"/>
<path d="M255.79 189.393L270.674 201.415H279.774L264.365 189.393H255.79Z" fill="#263238"/>
<path opacity="0.3" d="M255.79 189.393L270.674 201.415H279.774L264.365 189.393H255.79Z" fill="white"/>
<path d="M258.296 70.5361H268.138L264.597 73.3274H258.564L258.296 70.5361Z" fill="#263238"/>
<path opacity="0.3" d="M258.296 70.5361H268.138L264.597 73.3274H258.564L258.296 70.5361Z" fill="white"/>
<path d="M264.597 87.2609L258.725 79.7216V83.4912L264.597 91.0305V87.2609Z" fill="#263238"/>
<path opacity="0.3" d="M264.597 87.2609L258.725 79.7216V83.4912L264.597 91.0305V87.2609Z" fill="white"/>
<path opacity="0.3" d="M261.34 70.5361C261.276 70.5361 260.471 73.3274 260.471 73.3274H258.725V70.5361H261.34Z" fill="black"/>
<path opacity="0.3" d="M260.368 81.8313L260.296 85.5078L258.725 83.4912V79.7216L260.368 81.8313Z" fill="black"/>
<path d="M268.138 70.5361V195.404H264.597V73.3274L268.138 70.5361Z" fill="#263238"/>
<path opacity="0.3" d="M268.138 70.5361V195.404H264.597V73.3274L268.138 70.5361Z" fill="white"/>
<path d="M268.064 70.3801L264.733 73.1889C264.525 73.3649 264.464 73.43 264.462 73.733C264.459 74.2464 264.462 74.7599 264.462 75.2734V91.0305C264.462 91.2629 264.755 91.2633 264.755 91.0305V74.1452C264.755 73.9921 264.78 73.803 264.755 73.6526C264.749 73.6159 264.764 73.5706 264.755 73.5346C264.739 73.4655 264.626 73.6643 264.712 73.6438C264.919 73.5942 265.221 73.2143 265.391 73.0705L266.567 72.0789L268.212 70.6921C268.366 70.5616 268.22 70.2484 268.064 70.3801Z" fill="#263238"/>
<path d="M258.725 49.0282V95.4515L230.798 102.2L229.477 101.269V60.4305L256.559 49.0282H258.725Z" fill="#1C2F40"/>
<path opacity="0.6" d="M256.559 94.4043L229.477 101.269L230.798 102.2L258.725 95.4515L256.559 94.4043Z" fill="black"/>
<path d="M255.361 51.6663L255.222 93.5476L230.658 99.6295V61.5568L255.361 51.6663Z" fill="#1C2F40"/>
<path opacity="0.8" d="M255.361 51.6663L255.222 93.5476L230.658 99.6295V61.5568L255.361 51.6663Z" fill="white"/>
<path opacity="0.3" d="M256.559 49.0282V94.4044L258.725 95.4515V49.0282H256.559Z" fill="black"/>
<path d="M244.785 87.8267V96.1317L241.341 96.9843V88.7627L244.785 87.8267Z" fill="#1C2F40"/>
<path d="M238.676 89.5818C238.534 89.5818 238.508 89.5479 238.486 89.5166L238.409 89.4124L238.443 89.2687C238.489 88.8924 238.463 81.3111 238.433 76.3128L238.431 76.1359L247.633 72.4858V87.2693L247.482 87.3125C240.797 89.2311 239.132 89.5818 238.676 89.5818ZM238.824 76.4859C238.845 80.042 238.883 87.4944 238.833 89.1135C239.785 88.9733 244.303 87.7284 247.242 86.8868V73.1467L238.824 76.4859Z" fill="#263238"/>
<path d="M243.69 88.374L240.742 88.0099V88.9178L242.667 89.2168L243.69 88.374Z" fill="#1C2F40"/>
<path opacity="0.3" d="M245.777 55.5035C245.66 55.4569 230.658 69.6189 230.658 69.6189L230.727 75.614L254.565 51.9848L245.777 55.5035Z" fill="white"/>
<path d="M231.173 91.2713C226.394 91.2713 221.316 90.2559 221.316 88.374C221.316 86.4922 226.394 85.4768 231.173 85.4768C235.951 85.4768 241.029 86.4922 241.029 88.374C241.029 90.2559 235.951 91.2713 231.173 91.2713ZM231.173 85.9585C225.594 85.9585 221.707 87.2314 221.707 88.374C221.707 89.5166 225.594 90.7896 231.173 90.7896C236.751 90.7896 240.639 89.5166 240.639 88.374C240.639 87.2314 236.751 85.9585 231.173 85.9585Z" fill="#1C2F40"/>
<path d="M231.002 97.7847C227.766 97.7847 224.326 97.0923 224.326 95.8088C224.326 94.5253 227.766 93.8326 231.002 93.8326C234.239 93.8326 237.678 94.5253 237.678 95.8088C237.678 97.0923 234.239 97.7847 231.002 97.7847ZM231.002 94.1939C227.24 94.1939 224.619 95.0448 224.619 95.8088C224.619 96.5725 227.24 97.4235 231.002 97.4235C234.764 97.4235 237.385 96.5725 237.385 95.8088C237.385 95.0448 234.764 94.1939 231.002 94.1939Z" fill="#263238"/>
<path d="M231.077 104.401C229.451 104.401 227.032 104.067 227.032 103.148C227.032 102.229 229.451 101.896 231.077 101.896C232.702 101.896 235.121 102.229 235.121 103.148C235.121 104.067 232.702 104.401 231.077 104.401ZM231.077 102.257C228.614 102.257 227.325 102.837 227.325 103.148C227.325 103.459 228.614 104.039 231.077 104.039C233.539 104.039 234.828 103.459 234.828 103.148C234.828 102.837 233.539 102.257 231.077 102.257Z" fill="#263238"/>
<path d="M235.136 106.841C235.064 106.841 235.001 106.776 234.991 106.685C234.989 106.671 234.828 105.21 234.828 103.33C234.828 101.418 239.938 89.6321 240.156 89.1314C240.194 89.0432 240.284 89.0105 240.354 89.0575C240.426 89.1046 240.453 89.2142 240.414 89.3021C238.583 93.5163 235.121 101.872 235.121 103.33C235.121 105.183 235.28 106.622 235.281 106.636C235.292 106.735 235.237 106.826 235.156 106.84C235.15 106.841 235.143 106.841 235.136 106.841Z" fill="#263238"/>
<path d="M233.555 106.841C233.478 106.841 233.413 106.767 233.409 106.671C233.402 106.527 233.246 103.14 233.451 101.627C233.569 100.751 237.577 87.1267 237.747 86.5472C237.775 86.4534 237.86 86.4051 237.935 86.439C238.011 86.4731 238.05 86.5766 238.023 86.6704C236.581 91.5688 233.831 101.011 233.74 101.686C233.541 103.16 233.7 106.615 233.701 106.65C233.706 106.75 233.645 106.835 233.564 106.841L233.555 106.841Z" fill="#263238"/>
<path d="M227.275 106.601C227.199 106.601 227.134 106.529 227.129 106.434C227.128 106.418 227.032 104.794 227.032 102.92C227.032 101.464 223.338 93.1098 221.384 88.8962C221.344 88.8096 221.368 88.6993 221.439 88.6497C221.509 88.601 221.598 88.6299 221.638 88.717C221.871 89.2177 227.325 101.005 227.325 102.92C227.325 104.78 227.42 106.391 227.421 106.407C227.427 106.507 227.366 106.593 227.286 106.601L227.275 106.601Z" fill="#263238"/>
<path d="M228.677 106.746H228.672C228.591 106.743 228.528 106.66 228.53 106.561C228.531 106.523 228.612 102.752 228.413 101.275C228.321 100.599 225.801 91.3018 224.481 86.4804C224.455 86.3859 224.496 86.2833 224.573 86.2513C224.649 86.2203 224.732 86.2701 224.758 86.3647C224.914 86.9351 228.583 100.343 228.702 101.216C228.906 102.727 228.826 106.414 228.823 106.57C228.821 106.669 228.755 106.746 228.677 106.746Z" fill="#263238"/>
<path d="M231.853 107.011L231.845 107.011C231.764 107.005 231.702 106.92 231.707 106.82C231.71 106.765 231.969 101.254 232.019 99.9474C232.07 98.6345 233.198 86.2927 233.245 85.768C233.255 85.6692 233.324 85.5979 233.408 85.6088C233.488 85.6198 233.546 85.7094 233.537 85.8084C233.525 85.9369 232.362 98.6632 232.312 99.9646C232.262 101.273 232.002 106.785 231.999 106.841C231.995 106.937 231.93 107.011 231.853 107.011Z" fill="#263238"/>
<path d="M230.161 106.746C230.083 106.746 230.018 106.669 230.015 106.572C230.01 106.37 229.882 101.627 230.081 100.332C230.235 99.3361 229.19 90.3549 228.617 85.7449C228.604 85.6464 228.659 85.5542 228.739 85.5391C228.818 85.5227 228.894 85.5918 228.907 85.6904C228.974 86.237 230.57 99.0943 230.369 100.4C230.175 101.656 230.306 106.511 230.308 106.559C230.311 106.659 230.247 106.743 230.166 106.746H230.161Z" fill="#263238"/>
<path opacity="0.3" d="M230.756 81.0915L255.348 55.6573L255.361 61.5568V64.5722C255.361 64.5722 230.539 88.3929 230.658 88.0099C230.777 87.6268 230.756 81.0915 230.756 81.0915Z" fill="white"/>
<path opacity="0.3" d="M268.138 195.404L269.693 193.55L268.138 192.337V195.404Z" fill="black"/>
</svg>
